<?xml version="1.0" encoding="utf-8"?>
<!-- Generator: Adobe Illustrator 27.3.1, SVG Export Plug-In . SVG Version: 6.00 Build 0)  -->
<svg version="1.1" id="Layer_1" xmlns="http://www.w3.org/2000/svg" xmlns:xlink="http://www.w3.org/1999/xlink" x="0px" y="0px"
	 viewBox="0 0 1563 1563" style="enable-background:new 0 0 1563 1563;" xml:space="preserve">
<style type="text/css">
	.st0{fill-rule:evenodd;clip-rule:evenodd;}
	.st1{fill-rule:evenodd;clip-rule:evenodd;fill:#000101;}
	.st2{fill-rule:evenodd;clip-rule:evenodd;fill:#010102;}
</style>
<g>
	<path class="st0" d="M713.5,433.5c0,21.3,0,42.7,0,64c-32.3,0-64.7,0-97,0c-8.2-28.6-25.6-49.8-52-63.5
		C614.2,433.5,663.8,433.3,713.5,433.5z"/>
</g>
<g>
	<path class="st0" d="M724.5,434.5c27.7,0,55.3,0,83,0l0,0c26.7,69.8,53.7,139.5,81,209c13.6-34.8,27.1-69.6,40.6-104.4
		c13.5-34.8,27-69.7,40.4-104.6c27.7-0.2,55.3-0.3,83-0.5l0,0c-42.2,100.2-84.5,200.4-127,300.5c-17.3-14.1-36.7-17.6-58-10.5
		c-6,2.7-11.5,6.2-16.5,10.5C808.7,634.4,766.5,534.4,724.5,434.5z"/>
</g>
<g>
	<path class="st1" d="M608.3,562.3c35.1,0.1,70.1,0.1,105.2,0.2c0,21.3,0,42.7,0,64c-35.3,0-70.7,0-106,0c-3.2-5.4-7.7-12-14.1-18.8
		c-5.7-6-11.3-10.6-16.1-13.9c4.9-2.3,12.7-6.7,19.9-14.6C602.9,573,606.3,566.8,608.3,562.3z"/>
</g>
<g>
	<path class="st1" d="M713.8,755.5c-38.2,0.3-76.2,0-114-1c13.3-18.8,19.6-39.8,19-63c31.7,0,63.3,0,95,0
		C713.8,712.8,713.8,734.2,713.8,755.5z"/>
</g>
<circle class="st2" cx="888.1" cy="765.2" r="23.2"/>
</svg>
